<?xml version="1.0"?>
<svg xmlns="http://www.w3.org/2000/svg" xmlns:xlink="http://www.w3.org/1999/xlink" version="1.1" id="Layer_1" x="0px" y="0px" viewBox="0 0 512 512" style="enable-background:new 0 0 512 512;" xml:space="preserve" width="512px" height="512px"><g><g>
	<g>
		<path d="M256,0C114.608,0,0,114.608,0,256s114.608,256,256,256s256-114.608,256-256S397.392,0,256,0z M256,496    C123.664,496,16,388.336,16,256S123.664,16,256,16s240,107.664,240,240S388.336,496,256,496z" data-original="#000000" class="active-path" data-old_color="#000000" fill="#A4A4A4"/>
	</g>
</g><g>
	<g>
		<polygon points="264,248 264,97.6 248,97.6 248,248 97.6,248 97.6,264 248,264 248,414.4 264,414.4 264,264 414.4,264 414.4,248       " data-original="#000000" class="active-path" data-old_color="#000000" fill="#A4A4A4"/>
	</g>
</g></g> </svg>
